 http://www.scenespeeds.com/

Description

Complete name: Balls.To.The.Wall.2011.BRRip.XviD.AC3-PRESTiGE
Format: AVI
Format/Info: Audio Video Interleave
File size: 1.87 GiB
Duration: 1h 28mn
Overall bit rate: 3 018 Kbps
Language: English
Subs: N/A
Source: 720p-FLHD Many THANKS
Encoder: akosipalos iMDB: http://www.imdb.com/title/tt1626135/ Video
ID: 0
Format: MPEG-4 Visual
Format profile: Advanced Simple@L5
Format settings, BVOP: 2
Format settings, QPel: No
Format settings, GMC: No warppoints
Format settings, Matrix: Default (H.263)
Codec ID: XVID
Codec ID/Hint: XviD
Duration: 1h 28mn
Bit rate: 2 562 Kbps
Width: 720 pixels
Height: 400 pixels
Display aspect ratio: 16:9
Frame rate: 23.976 fps
Color space: YUV
Chroma subsampling: 4:2:0
Bit depth: 8 bits
Scan type: Progressive
Compression mode: Lossy
Bits/(Pixel*Frame): 0.371
Stream size: 1.58 GiB (85%)
Writing library: XviD 1.2.1 (UTC 2008-12-04) Audio
ID: 1
Format: AC-3
Format/Info: Audio Coding 3
Mode extension: CM (complete main)
Codec ID: 2000
Duration: 1h 28mn
Bit rate mode: Constant
Bit rate: 448 Kbps
Channel(s): 6 channels
Channel positions: Front: L C R, Side: L R, LFE
Sampling rate: 48.0 KHz
Bit depth: 16 bits
Compression mode: Lossy
Stream size: 284 MiB (15%)
Alignment: Aligned on interleaves
Interleave, duration: 64 ms (1.53 video frames)
Interleave, preload duration: 192 ms Plot:

An engaged guy is forced by his future father-in-law to take a side job moonlighting as an exotic
dancer in order to pay extravagant wedding neither of them can afford Screens: Release Notes:
    
http://www.scenespeeds.com/	